<?xml version="1.0" encoding="utf-8"?>
<!-- Generator: Adobe Illustrator 24.0.3, SVG Export Plug-In . SVG Version: 6.00 Build 0)  -->
<svg version="1.0" id="Layer_1" xmlns="http://www.w3.org/2000/svg" xmlns:xlink="http://www.w3.org/1999/xlink" x="0px" y="0px"
	 viewBox="0 0 117 30" style="enable-background:new 0 0 117 30;" xml:space="preserve">
<style type="text/css">
	.st0{fill:#FFFFFF;}
</style>
<g>
	<rect x="0.47" y="5.23" class="st0" width="5.37" height="24.1"/>
	<path class="st0" d="M27.04,15.4h-0.02h-8.47c-2.22,0-3.6-1.05-3.6-2.68c0-1.51,1.38-2.43,3.6-2.43h15.37h0.02V5.9h-0.02h-16H17.9
		c-5.23,0-8.53,2.64-8.53,6.94c0,4.27,3.3,6.94,8.53,6.94h0.02h9.18c2.22,0,3.6,1.05,3.6,2.72c0,1.51-1.38,2.43-3.6,2.43H11.06
		h-0.02v4.39h0.02h15.96h0.02c5.61,0,9.12-2.72,9.12-6.99C36.16,18.08,32.65,15.4,27.04,15.4z"/>
	<path class="st0" d="M76.98,25.44c-3.39,0-5.69-2.47-5.69-5.98V10.3H87.6V5.9H71.29V0.05h-5.02v19.66
		c0,6.11,4.35,10.25,10.71,10.25c6.32,0,10.51-4.11,10.66-10.15l-5.02,0C82.47,23.13,80.21,25.44,76.98,25.44z"/>
	<path class="st0" d="M96.52,19.81h19.98l-0.01-0.22h0v-1.97c0-0.74-0.06-1.46-0.16-2.15l0-0.08h-0.01
		c-0.96-6.04-5.85-10.15-12.5-10.15c-7.49,0-12.84,5.15-12.84,12.38c0,6.86,5.35,11.71,12.84,11.71h9.62l0.03-4.4h-9.62
		C100.25,24.93,97.42,22.94,96.52,19.81z M103.82,9.71c3.65,0,6.42,2.21,7.3,5.49c0.02,0.06,0.03,0.13,0.05,0.19H96.42
		c0.02-0.07,0.03-0.13,0.05-0.2C97.32,11.92,100.13,9.71,103.82,9.71z"/>
	<rect x="0.47" y="0" class="st0" width="5.36" height="1.98"/>
	<path class="st0" d="M51.46,25.52c-4.48,0-7.66-3.35-7.66-7.91c0-4.56,3.18-7.91,7.66-7.91c2.83,0,5.14,1.31,6.46,3.44l4.64-1.85
		c-2.08-3.73-6.09-6.06-11.1-6.06c-7.49,0-12.84,5.15-12.84,12.38S43.97,30,51.46,30c6.67,0,11.56-4.13,12.51-10.19l-5.11,0
		C58.02,23.25,55.19,25.52,51.46,25.52z"/>
</g>
</svg>
