<?xml version="1.0" encoding="utf-8"?>
<!-- Generator: Adobe Illustrator 24.0.3, SVG Export Plug-In . SVG Version: 6.00 Build 0)  -->
<svg version="1.1" id="Layer_1" xmlns="http://www.w3.org/2000/svg" xmlns:xlink="http://www.w3.org/1999/xlink" x="0px" y="0px"
	 viewBox="0 0 659.4 283.5" style="enable-background:new 0 0 659.4 283.5;" xml:space="preserve">
<style type="text/css">
	.st0{fill:#BA0F2B;}
</style>
<g>
	<path class="st0" d="M34.9,213.3c-9.6,9.6-9.6,25.5,0,35.1c9.6,9.6,25.5,9.6,35.1,0l17.3-17.3l-34.8-34.8L34.9,213.3z M62.3,231.1
		c0,5.4-4.4,9.9-9.9,9.9s-9.9-4.4-9.9-9.9c0-5.4,4.4-9.9,9.9-9.9S62.3,225.6,62.3,231.1z"/>
	<path class="st0" d="M75.4,111c10.4,9.9,15.6,20.5,15.6,31.1s-4.9,21-14.8,30.9c-3,3-9.4,9.4-13.8,13.8l35.1,35.1l13.6-13.6
		c20.5-20.5,41.8-20.5,62-0.5l13.8,13.8l34.8-34.8l-35.3-35.1L169.1,169c-7.4,7.4-17.3,11.1-27.2,11.1c-9.9,0-19.8-3.7-27.2-11.1
		c-15.1-15.1-15.1-39.3,0-54.4L132,97.4L96.9,62L61.8,97.4L75.4,111z"/>
	<path class="st0" d="M141.9,206.4c-6.9,0-14.3,4-21.7,11.4l-13.6,13.6l13.8,13.8c7.2,7.2,14.3,10.9,21,10.9c0,0,0,0,0.2,0
		c6.9,0,14.1-4,21.7-11.4l13.6-13.6l-13.8-13.8C155.7,210.1,148.8,206.4,141.9,206.4z M141.7,241c-5.4,0-9.9-4.4-9.9-9.9
		c0-5.4,4.4-9.9,9.9-9.9c5.4,0,9.9,4.4,9.9,9.9S147.1,241,141.7,241z"/>
	<path class="st0" d="M176.8,52.6L163.2,39c-15.1-14.8-28.2-14.8-42.8-0.2l-13.8,13.8l34.8,35.1L176.8,52.6z M131.8,52.6
		c0-5.4,4.4-9.9,9.9-9.9c5.4,0,9.9,4.4,9.9,9.9c0,5.4-4.4,9.9-9.9,9.9C136.2,62.5,131.8,58.1,131.8,52.6z"/>
	<path class="st0" d="M38.6,163.4L52.4,177c4.4-4.4,11.1-10.9,13.8-13.8c7.2-7.2,10.9-14.3,10.9-21.3s-4-14.1-11.6-21.5L52,106.8
		l-13.8,13.8C23.5,135.2,23.5,148.5,38.6,163.4z M52.4,132c5.4,0,9.9,4.4,9.9,9.9c0,5.4-4.4,9.9-9.9,9.9c-5.4,0-9.9-4.4-9.9-9.9
		C42.6,136.4,47,132,52.4,132z"/>
	<path class="st0" d="M195.8,141.9l0.2,0.2l34.8,34.8l13.6-13.6c7.4-7.4,11.4-14.8,11.4-21.7c0-6.4-3.7-13.6-10.9-21L231.4,107
		L195.8,141.9z M240.8,141.9c0,5.4-4.4,9.9-9.9,9.9s-9.9-4.4-9.9-9.9c0-5.4,4.4-9.9,9.9-9.9C236.3,132,240.8,136.4,240.8,141.9z"/>
	<path class="st0" d="M87.3,52.6L70,35.3c-4.9-4.9-11.1-7.2-17.5-7.2s-12.6,2.5-17.5,7.2c-9.6,9.6-9.6,25.5,0,35.1l17.3,17.3
		L87.3,52.6z M42.6,52.6c0-5.4,4.4-9.9,9.9-9.9s9.9,4.4,9.9,9.9c0,5.4-4.4,9.9-9.9,9.9C47,62.5,42.6,58.1,42.6,52.6z"/>
	<path class="st0" d="M248.4,70.4c9.6-9.6,9.6-25.5,0-35.1c-9.6-9.6-25.5-9.6-35.1,0L196,52.6L231.1,88L248.4,70.4z M221,52.6
		c0-5.4,4.4-9.9,9.9-9.9c5.4,0,9.9,4.4,9.9,9.9c0,5.4-4.4,9.9-9.9,9.9C225.4,62.5,221,58.1,221,52.6z"/>
	<path class="st0" d="M124.4,124.3c-9.6,9.6-9.6,25.5,0,35.1c9.6,9.6,25.5,9.6,35.1,0l17.3-17.3l-0.2-0.2L141.7,107L124.4,124.3z
		 M151.5,141.9c0,5.4-4.4,9.9-9.9,9.9c-5.4,0-9.9-4.4-9.9-9.9c0-5.4,4.4-9.9,9.9-9.9C147.1,132,151.5,136.4,151.5,141.9z"/>
	<path class="st0" d="M0.3,283.7h283.5V0.2H0.3V283.7z M25.3,79.8c-15.1-15.1-15.1-39.3,0-54.4c15.1-15.1,39.3-15.1,54.4,0
		l17.3,17.3l13.8-13.8c20-20,41.5-20,62,0.2l13.3,13.3l17.3-17.3c15.1-15.1,39.3-15.1,54.4,0c15.1,15.1,15.1,39.3,0,54.4l-17.3,17.5
		l13.8,13.8c20,20,20,41.5-0.5,62l-13.3,13.3l17.3,17.5c15.1,15.1,15.1,39.3,0,54.4c-7.4,7.4-17.3,11.1-27.2,11.1
		s-19.8-3.7-27.2-11.1L186.1,241l-13.3,13.3c-10.4,10.4-20.8,15.6-31.4,15.6c-10.4,0-20.8-4.9-30.6-15.1l-13.6-14.1L79.9,258
		c-7.4,7.4-17.3,11.1-27.2,11.1s-19.8-3.7-27.2-11.1c-15.1-15.1-15.1-39.3,0-54.4l17.3-17.3L29.5,173
		c-10.1-10.1-15.3-20.5-15.6-31.1c0-10.6,4.9-21,14.8-30.9l13.8-13.8L25.3,79.8z"/>
	<path class="st0" d="M196,231.3l17.3,17.3c9.6,9.6,25.5,9.6,35.1,0c9.6-9.6,9.6-25.5,0-35.1l-17.3-17.3L196,231.3z M240.8,231.1
		c0,5.4-4.4,9.9-9.9,9.9c-5.4,0-9.9-4.4-9.9-9.9c0-5.4,4.4-9.9,9.9-9.9S240.8,225.6,240.8,231.1z"/>
	<polygon class="st0" points="186.1,132.2 221.5,97.4 186.4,62 151.3,97.4 	"/>
	<path class="st0" d="M418.3,167.8c-0.8-0.8-2.4-1-3.5,0c-5.8,4.7-12.8,7.9-21.1,7.9c-17.7,0-30.9-14.6-30.9-31.9
		c0-17.4,13.1-32.2,30.8-32.2c7.7,0,15.5,3,21.3,8.1c1.1,1.1,2.5,1.1,3.5,0l8.4-8.7c1.1-1.1,1.1-2.8-0.1-3.9
		c-9.4-8.4-19.5-12.8-33.4-12.8c-27.6,0-49.9,22.2-49.9,49.9c0,27.6,22.2,49.6,49.9,49.6c12.3,0,24.2-4.3,33.6-13.4
		c1-1,1.2-2.8,0.1-3.7L418.3,167.8z"/>
	<path class="st0" d="M517.1,125.4c0-16.4-13.5-29.7-30.1-29.7h-39.5c-1.5,0-2.6,1.2-2.6,2.6v91.4c0,1.4,1.1,2.6,2.6,2.6h12.7
		c1.4,0,2.6-1.2,2.6-2.6v-35.2h15.3l18.4,36.6c0.3,0.6,1,1.2,2.2,1.2h14.5c2.3,0,3.3-2.2,2.3-4l-18.9-35.1
		C508.7,148.5,517.1,138.1,517.1,125.4z M485.5,139.8H463v-27.5h22.5c7.3,0,13.7,6.1,13.7,13.4C499.2,133.4,492.8,139.8,485.5,139.8
		z"/>
	<path class="st0" d="M552.3,95.7h-12.8c-1.4,0-2.6,1.2-2.6,2.6v91.4c0,1.4,1.2,2.6,2.6,2.6h12.8c1.4,0,2.6-1.2,2.6-2.6V98.4
		C555,97,553.7,95.7,552.3,95.7z"/>
	<path class="st0" d="M659.1,188.8l-42.5-93c-0.4-0.8-1-1.5-2.3-1.5h-1.4c-1.2,0-1.9,0.7-2.4,1.5l-43,93c-0.8,1.8,0.3,3.6,2.3,3.6
		h12c2.2,0,3.5-1.4,4-2.8l6.8-14.9H634l6.8,14.9c1,1.9,1.9,2.8,4,2.8h12C658.9,192.4,660,190.6,659.1,188.8z M599.5,159.4L613,129
		h0.4l13.8,30.4H599.5z"/>
</g>
</svg>
