<svg width="17" height="26" viewBox="0 0 17 26" fill="none" xmlns="http://www.w3.org/2000/svg">
<path d="M6.75 25.5V22.5H3.75V19.5H6.75V16.35C4.775 16 3.15625 15.0563 1.89375 13.5188C0.63125 11.9812 0 10.2 0 8.175C0 5.9 0.80625 3.96875 2.41875 2.38125C4.03125 0.79375 5.975 0 8.25 0C10.525 0 12.4688 0.79375 14.0813 2.38125C15.6938 3.96875 16.5 5.9 16.5 8.175C16.5 10.2 15.8687 11.9812 14.6062 13.5188C13.3438 15.0563 11.725 16 9.75 16.35V19.5H12.75V22.5H9.75V25.5H6.75ZM8.25 13.5C9.7 13.5 10.9375 12.9875 11.9625 11.9625C12.9875 10.9375 13.5 9.7 13.5 8.25C13.5 6.8 12.9875 5.5625 11.9625 4.5375C10.9375 3.5125 9.7 3 8.25 3C6.8 3 5.5625 3.5125 4.5375 4.5375C3.5125 5.5625 3 6.8 3 8.25C3 9.7 3.5125 10.9375 4.5375 11.9625C5.5625 12.9875 6.8 13.5 8.25 13.5Z" fill="#1C1B1B"/>
</svg>
