<svg width="31" height="30" viewBox="0 0 31 30" fill="none" xmlns="http://www.w3.org/2000/svg">
<path d="M15 30C12.925 30 10.975 29.6063 9.15 28.8188C7.325 28.0312 5.7375 26.9625 4.3875 25.6125C3.0375 24.2625 1.96875 22.675 1.18125 20.85C0.39375 19.025 0 17.075 0 15C0 12.925 0.39375 10.975 1.18125 9.15C1.96875 7.325 3.0375 5.7375 4.3875 4.3875C5.7375 3.0375 7.325 1.96875 9.15 1.18125C10.975 0.39375 12.925 0 15 0C18.65 0 21.8438 1.14375 24.5812 3.43125C27.3187 5.71875 29.025 8.5875 29.7 12.0375H26.625C26.15 10.2125 25.2937 8.58125 24.0562 7.14375C22.8188 5.70625 21.3 4.625 19.5 3.9V4.5C19.5 5.325 19.2062 6.03125 18.6187 6.61875C18.0312 7.20625 17.325 7.5 16.5 7.5H13.5V10.5C13.5 10.925 13.3563 11.2812 13.0688 11.5688C12.7812 11.8563 12.425 12 12 12H9V15H12V19.5H10.5L3.3 12.3C3.225 12.75 3.15625 13.2 3.09375 13.65C3.03125 14.1 3 14.55 3 15C3 18.275 4.15 21.0875 6.45 23.4375C8.75 25.7875 11.6 26.975 15 27V30ZM28.65 29.25L23.85 24.45C23.325 24.75 22.7625 25 22.1625 25.2C21.5625 25.4 20.925 25.5 20.25 25.5C18.375 25.5 16.7812 24.8438 15.4688 23.5312C14.1562 22.2188 13.5 20.625 13.5 18.75C13.5 16.875 14.1562 15.2812 15.4688 13.9688C16.7812 12.6562 18.375 12 20.25 12C22.125 12 23.7188 12.6562 25.0312 13.9688C26.3438 15.2812 27 16.875 27 18.75C27 19.425 26.9 20.0625 26.7 20.6625C26.5 21.2625 26.25 21.825 25.95 22.35L30.75 27.15L28.65 29.25ZM20.25 22.5C21.3 22.5 22.1875 22.1375 22.9125 21.4125C23.6375 20.6875 24 19.8 24 18.75C24 17.7 23.6375 16.8125 22.9125 16.0875C22.1875 15.3625 21.3 15 20.25 15C19.2 15 18.3125 15.3625 17.5875 16.0875C16.8625 16.8125 16.5 17.7 16.5 18.75C16.5 19.8 16.8625 20.6875 17.5875 21.4125C18.3125 22.1375 19.2 22.5 20.25 22.5Z" fill="#FAF8F2"/>
</svg>
